<svg class="icon" viewBox="0 0 1024 1024" xmlns="http://www.w3.org/2000/svg" width="200" height="200"><defs><style type="text/css"/></defs><path d="M745.728 172.684a118.202 118.202 0 0 1 118.086 118.063 118.225 118.225 0 0 1-118.086 118.086 118.225 118.225 0 0 1-118.086-118.086 118.249 118.249 0 0 1 118.086-118.063zm0 157.44a39.377 39.377 0 0 0 0-78.708 39.401 39.401 0 0 0-39.354 39.354c.047 21.713 17.641 39.331 39.354 39.354zm0 0M631.249.093h162.234c196.724 0 229.888 72.844 229.888 236.148v173.196c0 91.345-17.594 118.388-86.993 185.693l-402.269 393.472c-45.009 43.66-130.281 43.543-175.034.116l-323.584-314.903c-22.551-21.9-35.491-53.597-35.491-86.924 0-33.559 13.103-65.536 35.98-87.645l356.724-362.356c80.547-79.407 138.775-136.797 238.545-136.797zm-184.692 944.105c12.916 0 24.809-4.329 32.628-11.916l402.269-393.519c61.463-59.601 63.185-67.049 63.185-129.327v-173.172c0-135.633-10.263-157.44-151.18-157.44h-162.211c-64.791 0-103.005 35.025-183.249 114.153l-32.791 32.116-323.77 329.984c-8.355 8.099-12.707 19.409-12.707 31.837 0 12.148 4.212 23.226 11.636 30.441l323.561 314.88c7.843 7.587 19.735 11.962 32.628 11.962zm0 0"/></svg>