<?xml version="1.0" standalone="no"?><!DOCTYPE svg PUBLIC "-//W3C//DTD SVG 1.1//EN" "http://www.w3.org/Graphics/SVG/1.1/DTD/svg11.dtd"><svg t="1603359348378" class="icon" viewBox="0 0 1039 1024" version="1.1" xmlns="http://www.w3.org/2000/svg" p-id="3842" xmlns:xlink="http://www.w3.org/1999/xlink" width="202.9296875" height="200"><defs><style type="text/css"></style></defs><path d="M511.459694 1004.039389c-10.07445 0-20.147876-3.854794-27.819602-11.526521L365.615025 874.482685c-15.385409-15.380292-15.385409-40.244586 0-55.632041 15.380292-15.380292 40.246633-15.380292 55.626925 0l90.216721 90.216721 90.210581-90.216721c7.359618-7.395434 17.349133-11.526521 27.819602-11.526521l275.399327 0c21.713534 0 39.337937-17.626449 39.337937-39.346123L944.226119 138.496308c0-21.678742-17.624403-39.346123-39.337937-39.346123L118.030184 99.150184c-21.678742 0-39.346123 17.667382-39.346123 39.346123l0 629.482715c0 21.719674 17.667382 39.346123 39.346123 39.346123l118.030184 0c21.712511 0 39.337937 17.582447 39.337937 39.346123 0 21.75549-17.626449 39.337937-39.337937 39.337937L118.030184 886.009206c-65.076134 0-118.030184-52.955072-118.030184-118.030184L0 138.496308c0-65.076134 52.955072-118.030184 118.030184-118.030184l786.859022 0c65.069995 0 118.030184 52.954049 118.030184 118.030184l0 629.482715c0 65.076134-52.961212 118.030184-118.030184 118.030184L645.775796 886.009206 539.27111 992.512868C531.599384 1000.185618 521.532097 1004.039389 511.459694 1004.039389L511.459694 1004.039389zM295.071366 492.579695c-32.538067 0-59.010999-26.473955-59.010999-59.010999s26.473955-59.019185 59.010999-59.019185 59.010999 26.481118 59.010999 59.019185S327.609433 492.579695 295.071366 492.579695L295.071366 492.579695zM531.132756 492.579695c-32.538067 0-59.019185-26.473955-59.019185-59.010999s26.481118-59.019185 59.019185-59.019185c32.531927 0 59.010999 26.481118 59.010999 59.019185S563.66366 492.579695 531.132756 492.579695L531.132756 492.579695zM767.18596 492.579695c-32.538067 0-59.010999-26.473955-59.010999-59.010999s26.473955-59.019185 59.010999-59.019185c32.538067 0 59.019185 26.481118 59.019185 59.019185S799.723004 492.579695 767.18596 492.579695L767.18596 492.579695zM767.18596 492.579695" p-id="3843"></path></svg>