<svg class="icon" viewBox="0 0 1024 1024" xmlns="http://www.w3.org/2000/svg" width="200" height="200"><defs><style type="text/css"/></defs><path d="M734.5 263h116.18a10.29 10.29 0 0 0 8.38-16.27 746.4 746.4 0 0 0-79.06-92.73c-37.78-37.78-78.38-66.12-100.11-80.16a10.29 10.29 0 0 0-15.89 8.63v110a70.5 70.5 0 0 0 70.5 70.53zm102.44 57.88l-167.18-.61a72.74 72.74 0 0 1-72.47-73l.59-149.83a33.28 33.28 0 0 0-33.29-33.44h-264.16a145.33 145.33 0 0 0-145.33 145.33v605.34a145.33 145.33 0 0 0 145.33 145.33h424.34a145.33 145.33 0 0 0 145.33-145.33v-460.51a33.28 33.28 0 0 0-33.16-33.28zm-131.74 383.35a46.61 46.61 0 0 1-46.61 46.61h-292a46.61 46.61 0 0 1-46.59-46.61 46.61 46.61 0 0 1 46.61-46.61h292a46.61 46.61 0 0 1 46.61 46.61zm0-211a46.61 46.61 0 0 1-46.61 46.61h-292a46.61 46.61 0 0 1-46.59-46.61 46.61 46.61 0 0 1 46.61-46.61h292a46.61 46.61 0 0 1 46.61 46.61z"/></svg>