<svg class="icon" width="200" height="200" viewBox="0 0 1024 1024" xmlns="http://www.w3.org/2000/svg"><path d="M527.4 450.4h-247.1c-17.1 0-30.9 13.8-30.9 30.9s13.8 30.9 30.9 30.9h247.1c17.1 0 30.9-13.8 30.9-30.9s-13.8-30.9-30.9-30.9zm123.5-185.3h-370.6c-17.1 0-30.9 13.8-30.9 30.9 0 17.1 13.8 30.9 30.9 30.9h370.6c17.1 0 30.9-13.8 30.9-30.9 0-17.1-13.8-30.9-30.9-30.9zm123.6-185.3h-586.8c-68.2 0-123.5 55.3-123.5 123.5v617.7c0 68.2 55.3 123.5 123.5 123.5h216.2v-61.8h-185.4c-51.2 0-92.7-41.5-92.7-92.7v-555.8c0-51.2 41.5-92.7 92.7-92.7h525.1c51.2 0 92.7 41.5 92.7 92.7v123.5h61.7v-154.4c0-68.2-55.3-123.5-123.5-123.5zm-370.6 555.9h-123.6c-17.1 0-30.9 13.8-30.9 30.9 0 17.1 13.8 30.9 30.9 30.9h123.5c17.1 0 30.9-13.8 30.9-30.9 0-17-13.8-30.9-30.8-30.9zm117.9 307.3c-20.7 0-40.3-6.3-54.8-18.1-16-13-25-31.8-25.4-53.1-.7-36.9 29.9-129.7 36.1-147.9l2-6 4.3-4.6c25.4-27.5 248.8-269.3 267.9-287.3 25.5-23.9 63.4-35.2 92.2-27.4 14.5 3.9 36.8 15.8 55.3 29.6 18.6 13.8 42.9 36.3 53.6 65.4 8.3 22.6 8.7 48.3 1.3 74.4-5.3 18.7-12.9 31.5-13.7 32.8l-1.5 2.5-2 2.2c-60.6 65.7-259.4 280.9-273.8 293.2-6.7 5.8-19.5 13.9-59 26.2-21.3 6.6-46.2 13-63.4 16.2-6.4 1.3-12.8 1.9-19.1 1.9zm10.1-194.2c-13.7 41.4-31.3 103-31 121.7.1 4.8 1.7 6.7 3.5 8.1 5.2 4.2 15.7 5.9 25.5 4.1 32.6-6.2 84.4-22.1 94.8-29.2 15.2-14.4 166-177 266.2-285.6 3.7-7.3 14.4-31.7 6.3-54-10.2-27.8-56-54.6-68.6-58.1-6.1-1.6-23.3 1.4-36.1 13.4-13.1 12.4-161.3 172.2-260.6 279.6zm233.2-251.6l123.1 114.7-34.1 36.3-123.1-114.7 34.1-36.3z"/></svg>