<svg class="icon" width="200" height="200" viewBox="0 0 1024 1024" xmlns="http://www.w3.org/2000/svg"><path d="M512 56.685c61.492 0 121.114 12.031 177.211 35.758 54.212 22.93 102.911 55.767 144.745 97.601 41.834 41.834 74.672 90.533 97.601 144.745 23.727 56.097 35.758 115.72 35.758 177.211s-12.031 121.114-35.758 177.211c-22.93 54.212-55.767 102.911-97.601 144.745-41.833 41.833-90.533 74.672-144.745 97.601-56.097 23.727-115.72 35.758-177.211 35.758s-121.114-12.031-177.211-35.758c-54.212-22.93-102.911-55.767-144.745-97.601s-74.672-90.533-97.601-144.745c-23.727-56.097-35.758-115.72-35.758-177.211s12.031-121.114 35.758-177.211c22.93-54.212 55.767-102.911 97.601-144.745 41.833-41.833 90.533-74.672 144.745-97.601 56.097-23.727 115.72-35.758 177.211-35.758m0-56.685c-282.769 0-512 229.23-512 512s229.23 512 512 512 512-229.231 512-512-229.23-512-512-512zm-249.217 825.901h498.435c0-.969-498.435 0-498.435 0zm557.491-44.831c-15.778-108.615-87.995-199.021-186.086-240.732 57.855-39.066 95.878-105.09 95.878-179.962 0-119.982-97.629-217.245-218.066-217.245s-218.065 97.263-218.065 217.245c0 74.872 38.024 140.896 95.878 179.958-98.092 41.71-170.308 132.119-186.086 240.735-2.076 4.155-3.247 8.838-3.247 13.794 0 17.14 13.946 31.037 31.152 31.037 17.205 0 31.151-13.896 31.151-31.037v31.037c0-137.123 111.58-248.279 249.217-248.279s249.218 111.157 249.218 248.279v-31.037c0 17.14 13.946 31.037 31.152 31.037 17.205 0 31.151-13.896 31.151-31.037 0-4.956-1.171-9.639-3.247-13.794zm-308.274-265.519c-86.021 0-155.758-69.477-155.758-155.174 0-85.701 69.737-155.178 155.758-155.178 86.027 0 155.759 69.477 155.759 155.178s-69.732 155.174-155.759 155.174zm0 0"/></svg>