<svg class="icon" width="200" height="200" viewBox="0 0 1024 1024" xmlns="http://www.w3.org/2000/svg"><path d="M682.61 398.43h-398.09v56.87h398.09v-56.87zm-398.09 398.09h398.09v-56.87h-398.09v56.87zm0-170.61h511.83v-56.87h-511.83v56.87zm682.44-386.772v-11.317h-11.318l-216.162-216.163v-11.317h-11.317l-.343-.341-.34.341h-556.7c-62.84 0-113.74 50.899-113.74 113.74v796.18c0 62.84 50.9 113.739 113.74 113.739h682.44c62.84 0 113.74-50.899 113.74-113.74v-666.857l2.104-2.104-2.105-2.16zm-227.48-147.066l135.748 135.749h-135.748v-135.749zm170.61 818.188c0 31.392-25.478 56.87-56.87 56.87h-682.44c-31.392 0-56.87-25.478-56.87-56.87v-796.179c0-31.392 25.478-56.87 56.87-56.87h511.83v227.48h227.48v625.57z"/></svg>