<svg class="icon" width="200" height="200" viewBox="0 0 1024 1024" xmlns="http://www.w3.org/2000/svg"><path fill="#333" d="M819.2 358.4h-51.2v-102.4c0-141.385-114.615-256-256-256s-256 114.615-256 256v102.4h-51.2c-56.502.125-102.275 45.898-102.4 102.4v443.733c.125 56.502 45.898 102.275 102.4 102.4h614.4c56.502-.125 102.275-45.898 102.4-102.4v-443.733c-.125-56.502-45.898-102.275-102.4-102.4zm-261.689 381.383v41.87c0 25.135-20.376 45.511-45.511 45.511s-45.511-20.376-45.511-45.511v-41.87c-42.596-21.133-65.039-68.808-54.186-115.103 10.853-46.295 52.147-79.027 99.697-79.027 47.55 0 88.844 32.733 99.697 79.027 10.853 46.295-11.59 93.97-54.186 115.103zm113.778-381.383h-318.578v-102.4c0-56.908 30.36-109.494 79.644-137.948 49.284-28.454 110.005-28.454 159.289 0 49.284 28.454 79.644 81.04 79.644 137.948v102.4z"/></svg>