<svg class="icon" width="200" height="200" viewBox="0 0 1024 1024" xmlns="http://www.w3.org/2000/svg"><path d="M788.48 629.419c0-17.067-5.803-31.744-17.749-44.715l-349.525-348.843c-12.288-12.288-29.355-22.869-49.835-31.744-21.163-8.875-39.936-12.971-57.003-12.971h-203.435c-17.067 0-31.744 6.485-44.032 18.773-12.288 12.288-18.773 26.965-18.773 44.032v202.752c0 17.067 4.096 36.523 12.971 57.003 8.875 21.163 18.773 37.547 31.744 49.835l349.525 349.525c12.288 12.288 26.965 17.749 44.032 17.749 17.067 0 31.744-5.803 44.715-17.749l239.616-239.616c11.264-12.288 17.749-26.965 17.749-44.032zm-539.989-237.227c-12.288 12.288-26.965 18.091-44.032 18.091-17.067 0-31.744-5.803-44.032-18.091-12.288-12.288-18.091-26.965-18.091-44.032 0-17.067 5.803-31.744 18.091-44.032 12.288-12.288 26.965-18.091 44.032-18.091 17.067 0 31.744 5.803 44.032 18.091 12.288 12.288 17.749 26.965 17.749 44.032 1.024 17.408-5.461 31.744-17.749 44.032zm709.632 192.171l-349.525-348.501c-12.288-12.288-29.355-22.869-49.835-31.744-21.163-8.875-39.936-12.971-57.003-12.971h-109.909c17.067 0 36.523 4.096 57.003 12.971 21.163 8.875 37.547 18.773 49.835 31.744l349.525 348.501c12.288 12.971 18.091 27.648 18.091 44.715s-5.803 31.744-18.091 44.032l-229.035 229.717c9.899 9.899 18.773 17.067 25.941 21.845 7.168 4.779 17.067 6.485 28.672 6.485 17.067 0 31.744-5.803 44.715-18.091l239.616-240.299c12.288-12.288 17.749-26.965 17.749-44.032s-5.803-31.061-17.749-44.373zm0 0"/></svg>