<svg class="icon" viewBox="0 0 1024 1024" xmlns="http://www.w3.org/2000/svg" width="200" height="200"><defs><style type="text/css"/></defs><path d="M798.72 51.2h-573.44c-51.2 0-92.672 41.984-92.672 92.672v736.256c0 51.2 41.984 92.672 92.672 92.672h457.728l208.896-208.896v-620.032c0-50.688-41.984-92.672-93.184-92.672zm-46.08 585.216h-481.28c-18.944 0-34.816-15.872-34.816-34.816 0-18.944 15.872-34.816 34.816-34.816h481.28c18.944 0 34.816 15.872 34.816 34.816 0 19.456-15.872 34.816-34.816 34.816zm0-167.936h-481.28c-18.944 0-34.816-15.872-34.816-34.816 0-18.944 15.872-34.816 34.816-34.816h481.28c18.944 0 34.816 15.872 34.816 34.816 0 19.456-15.872 34.816-34.816 34.816zm0-167.936h-481.28c-18.944 0-34.816-15.872-34.816-34.816 0-18.944 15.872-34.816 34.816-34.816h481.28c18.944 0 34.816 15.872 34.816 34.816 0 18.944-15.872 34.816-34.816 34.816z"/></svg>