<svg class="icon" width="200" height="200" viewBox="0 0 1024 1024" xmlns="http://www.w3.org/2000/svg"><path d="M979.792 404.577l-405.609-320.634c-34.919-27.694-89.62-27.694-124.538 0l-405.437 320.634c-13.934 11.01-16.17 31.135-5.333 44.896s30.619 16.17 44.552 5.332l12.557-10.32v387.547c0 54.873 57.969 95.984 108.713 95.984h639.892c50.228 0 83.255-38.531 83.255-95.984v-386.171l11.697 8.944c5.849 4.645 13.073 6.88 20.126 6.88 9.46 0 18.921-4.127 25.286-12.212 11.009-13.761 8.773-33.887-5.16-44.896zm-499.872 459.45v-177.519c0-8.772 15.998-13.245 31.995-13.245s31.995 4.473 31.995 13.245v177.347l-63.99.172zm384.108-31.995c0 21.158-5.849 31.995-19.266 31.995h-236.176l-.688-1.376v-176.143c0-37.155-29.93-77.234-95.984-77.234s-95.984 40.08-95.984 77.234v176.143l.86 1.376h-211.92c-20.126 0-44.724-17.374-44.724-31.995v-438.292l328.72-259.569c11.868-9.289 33.198-9.289 44.895 0l330.095 261.117v436.744z"/></svg>