<svg class="icon" width="200" height="200" viewBox="0 0 1024 1024" xmlns="http://www.w3.org/2000/svg"><path d="M948.48 833.92l-185.6-183.68c-3.84-3.84-8.32-6.4-13.44-7.68 51.84-62.08 82.56-140.8 82.56-226.56 0-194.56-157.44-352-352-352s-352 157.44-352 352 157.44 352 352 352c85.76 0 163.84-30.72 225.28-81.28 1.92 4.48 4.48 8.96 8.32 12.8l185.6 183.68c14.08 13.44 35.84 13.44 49.92 0s13.44-35.84-.64-49.28zm-468.48-129.92c-159.36 0-288-128.64-288-288s128.64-288 288-288 288 128.64 288 288-128.64 288-288 288z"/></svg>